<?xml version="1.0" encoding="UTF-8" standalone="no" ?>
<!DOCTYPE svg PUBLIC "-//W3C//DTD SVG 1.1//EN" "http://www.w3.org/Graphics/SVG/1.1/DTD/svg11.dtd">
<svg xmlns="http://www.w3.org/2000/svg" xmlns:xlink="http://www.w3.org/1999/xlink" version="1.1" width="230.52790222167968" height="234.92919999999998" xml:space="preserve">
<desc>Created with Fabric.js 1.6.0-rc.1</desc>
<defs></defs>
<g style="stroke: none; stroke-width: 1; stroke-dasharray: none; stroke-linecap: butt; stroke-linejoin: miter; stroke-miterlimit: 10; fill: none; fill-rule: nonzero; opacity: 1;" transform="translate(30.100000000000023 10) scale(0.34 0.34)" >
  <circle cx="252.5" cy="252.5" r="252.5" style="stroke: none; stroke-width: 1; stroke-dasharray: none; stroke-linecap: butt; stroke-linejoin: miter; stroke-miterlimit: 10; fill: #999999; fill-rule: nonzero; opacity: 1;" transform="  matrix(1 0 0 1 0 0) "/>
  <path d="M 252.9 121.6 c -0.1 -0.7 -0.2 -1.4 -0.5 -2 C 252.2 120.2 252.5 120.9 252.9 121.6 z" style="stroke: none; stroke-width: 1; stroke-dasharray: none; stroke-linecap: butt; stroke-linejoin: miter; stroke-miterlimit: 10; fill: #324A5E; fill-rule: nonzero; opacity: 1;" transform=" matrix(1 0 0 1 0 0) " stroke-linecap="round" />
  <path d="M 301.2 141.3 c -1.6 -0.4 -3.7 -0.5 -5.5 -0.8 c -7 -0.9 -10.1 -3.9 -10.8 -6.5 c -0.7 -2.6 -0.1 -5.4 -3.2 -7.8 c -0.8 2.4 -1.8 4.8 -3.2 7.2 c -0.3 0.4 -1.9 1 -2.4 0.6 c -5.3 -3.2 -7.8 -7 -7.1 -10.7 c -1.7 3.6 -3.3 7.2 -5 10.7 c -5.1 -3.9 -7.4 -8.2 -6.8 -12.4 c -0.4 0.6 -1 1.3 -1.5 1.9 c -0.2 0.2 -0.3 0.5 -0.5 0.7 c -0.2 -0.2 -0.3 -0.5 -0.5 -0.7 c -0.5 -0.6 -1.1 -1.3 -1.5 -1.9 c 0.6 4.3 -1.7 8.6 -6.8 12.4 c -1.7 -3.6 -3.3 -7.2 -5 -10.7 c 0.7 3.7 -1.8 7.5 -7.1 10.7 c -0.5 0.4 -2.1 -0.1 -2.4 -0.6 c -1.4 -2.4 -2.4 -4.8 -3.2 -7.2 c -3.1 2.4 -2.5 5.2 -3.2 7.8 s -3.8 5.6 -10.8 6.5 c -1.9 0.2 -3.9 0.3 -5.5 0.8 c -1.6 0.4 -2.3 1.4 -0.7 1.8 c 11.8 -0.2 23.5 -0.7 35.1 -1.5 c 2.9 -0.2 6 -0.4 8.1 -1.2 c 1.8 -0.6 2.7 -1.5 3.4 -2.3 c 0.1 -0.1 0.2 -0.3 0.3 -0.5 c 0.1 0.2 0.2 0.3 0.3 0.5 c 0.7 0.9 1.6 1.7 3.4 2.3 c 2.1 0.7 5.2 1 8.1 1.2 c 11.6 0.8 23.3 1.3 35.1 1.5 C 303.4 142.7 302.7 141.7 301.2 141.3 z" style="stroke: none; stroke-width: 1; stroke-dasharray: none; stroke-linecap: butt; stroke-linejoin: miter; stroke-miterlimit: 10; fill: #324A5E; fill-rule: nonzero; opacity: 1;" transform=" matrix(1 0 0 1 0 0) " stroke-linecap="round" />
  <path d="M 257.6 119.6 c -0.2 0.7 -0.4 1.3 -0.5 2 C 257.5 120.9 257.8 120.2 257.6 119.6 z" style="stroke: none; stroke-width: 1; stroke-dasharray: none; stroke-linecap: butt; stroke-linejoin: miter; stroke-miterlimit: 10; fill: #324A5E; fill-rule: nonzero; opacity: 1;" transform=" matrix(1 0 0 1 0 0) " stroke-linecap="round" />
  <path d="M 309.8 189.5 L 309.8 189.5 c 50.8 0 92 -39.8 92 -88.9 C 350.9 100.6 309.8 140.4 309.8 189.5 z" style="stroke: none; stroke-width: 1; stroke-dasharray: none; stroke-linecap: butt; stroke-linejoin: miter; stroke-miterlimit: 10; fill: #ff2206; fill-rule: nonzero; opacity: 1;" transform=" matrix(1 0 0 1 0 0) " stroke-linecap="round" />
  <path d="M 195.2 189.5 L 195.2 189.5 c -50.8 0 -92 -39.8 -92 -88.9 C 154.1 100.6 195.2 140.4 195.2 189.5 z" style="stroke: none; stroke-width: 1; stroke-dasharray: none; stroke-linecap: butt; stroke-linejoin: miter; stroke-miterlimit: 10; fill: #ff2206; fill-rule: nonzero; opacity: 1;" transform=" matrix(1 0 0 1 0 0) " stroke-linecap="round" />
  <path d="M 314.9 347.2 c 0 0 0 0 0 0.1 C 314.9 347.4 314.9 347.6 314.9 347.2 c -0.1 -0.2 -0.2 -0.5 -0.3 -0.8 c -0.1 -0.3 -0.1 -0.2 -0.2 -0.3 c -0.3 -0.2 -0.5 -0.1 -0.6 0.3 c -0.3 0.7 -0.4 2.6 2.8 5.2 c 1.7 1.2 4.1 2.6 7.3 3.6 c 3.2 1 7.1 1.8 11.4 2.2 l 3.3 0.3 l 0.8 0.1 h 0.4 h 0.2 h 0.1 c 0.8 -0.1 -1.1 0.2 -0.8 0.1 h 0.1 l 2 -0.1 l 2 -0.1 c 0.5 0 0.4 0 0.7 0 c 0.3 0.1 0.9 0.1 1.5 0 c 2.4 -0.3 4.5 -1 6.8 -3.8 c 2.3 -2.7 4.2 -6.9 5.7 -11.5 s 2.7 -9.7 3.9 -14.7 c 2.4 -10 4.7 -20.1 9.7 -27.9 c 2.4 -3.9 5.6 -7 8.9 -8.7 c 3.2 -1.9 6.3 -2.5 8.7 -2.8 c 2.5 -0.2 4.4 -0.2 5.7 -0.1 c 1.3 0.1 2 0.1 2 0.1 s -0.7 0.1 -1.9 0.4 c -1.3 0.2 -3.1 0.7 -5.2 1.5 c -2.1 0.9 -4.6 2.2 -6.6 4.4 c -2.1 2.1 -3.8 5 -4.8 8.4 c -2.1 7 -1.8 16.1 -1.4 26.2 c 0.2 5.1 0.4 10.5 0.1 16.4 s -1 12.3 -3.8 19.3 c -1.3 3.5 -3.4 7 -6.1 10.3 c -2.8 3.1 -6.2 6.1 -9.8 8.1 c -1.7 1.1 -3.7 2 -5.9 2.8 l -3.1 1.1 l -1.9 0.6 l -1.9 0.6 l -1.4 0.2 l -0.5 0.1 l -1.1 0.2 c -1.5 0.3 -2.9 0.6 -4.4 0.9 c -5.8 1.1 -11.8 1.7 -17.9 1.5 c -6 -0.1 -12.2 -1 -18 -2.7 c -5.9 -1.9 -11.5 -4.7 -16.1 -8.2 c -4.6 -3.6 -8.2 -7.5 -10.7 -11.3 c -2.5 -3.7 -4.1 -7.1 -5.1 -9.7 c -0.3 -0.7 -0.4 -1.1 -0.6 -1.9 s -0.4 -1.5 -0.5 -2 c -0.2 -0.7 -0.2 -0.7 -0.2 -0.8 c 0 -0.1 0 -0.1 0 -0.1 L 314.9 347.2 z" style="stroke: none; stroke-width: 1; stroke-dasharray: none; stroke-linecap: butt; stroke-linejoin: miter; stroke-miterlimit: 10; fill: #FFFFFF; fill-rule: nonzero; opacity: 1;" transform=" matrix(1 0 0 1 0 0) " stroke-linecap="round" />
  <path d="M 237 354.7 c 0 0 0 0 0 0.1 s 0 0.1 -0.2 0.8 c -0.1 0.5 -0.3 1.2 -0.5 2 c -0.2 0.7 -0.4 1.2 -0.6 1.9 c -1 2.7 -2.5 6 -5.1 9.7 c -2.5 3.8 -6.1 7.7 -10.7 11.3 c -4.6 3.5 -10.2 6.3 -16.1 8.2 c -5.9 1.8 -12 2.7 -18 2.7 c -6 0.1 -12 -0.5 -17.9 -1.5 c -1.4 -0.3 -2.9 -0.6 -4.4 -0.9 l -1.1 -0.2 l -0.5 -0.1 l -1.4 -0.2 l -1.9 -0.6 l -1.9 -0.6 l -3.1 -1.1 c -2.2 -0.8 -4.2 -1.7 -5.9 -2.8 c -3.6 -2 -7 -4.9 -9.8 -8.1 c -2.6 -3.3 -4.8 -6.8 -6.1 -10.3 c -2.8 -7 -3.5 -13.4 -3.8 -19.3 s 0 -11.3 0.1 -16.4 c 0.4 -10.2 0.7 -19.2 -1.4 -26.2 c -1 -3.5 -2.7 -6.3 -4.8 -8.4 c -2 -2.2 -4.5 -3.5 -6.6 -4.4 c -2.2 -0.8 -3.9 -1.3 -5.2 -1.5 c -1.3 -0.3 -1.9 -0.4 -1.9 -0.4 s 0.7 0 2 -0.1 c 1.3 -0.2 3.2 -0.2 5.7 0.1 c 2.4 0.3 5.6 0.9 8.7 2.8 c 3.2 1.8 6.4 4.9 8.9 8.7 c 5 7.8 7.3 18 9.7 27.9 c 1.2 5 2.4 10 3.9 14.7 c 1.5 4.6 3.5 8.8 5.7 11.5 c 2.3 2.8 4.4 3.5 6.8 3.8 c 0.6 0.2 1.1 0.1 1.5 0 c 0.3 0 0.2 0 0.7 0 l 2 0.1 l 2 0.1 h 0.1 c 0.2 0 -1.7 -0.2 -0.8 -0.1 h 0.1 h 0.2 h 0.4 l 0.8 -0.1 l 3.3 -0.3 c 4.3 -0.4 8.2 -1.2 11.4 -2.2 s 5.6 -2.4 7.3 -3.6 c 3.2 -2.7 3.1 -4.5 2.8 -5.2 c -0.2 -0.4 -0.4 -0.5 -0.6 -0.3 c -0.1 0.1 -0.1 0 -0.2 0.3 c -0.1 0.3 -0.2 0.6 -0.3 0.8 c -0.1 0.4 -0.1 0.2 -0.1 0.1 s 0 -0.1 0 -0.1 L 237 354.7 z" style="stroke: none; stroke-width: 1; stroke-dasharray: none; stroke-linecap: butt; stroke-linejoin: miter; stroke-miterlimit: 10; fill: #FFFFFF; fill-rule: nonzero; opacity: 1;" transform=" matrix(1 0 0 1 0 0) " stroke-linecap="round" />
  <path d="M 354.1 203.7 c 5.3 70.7 -37.2 199.3 -101.6 199.3 S 145.6 274.4 150.9 203.7 c 4.8 -64 48.2 -66.2 101.6 -66.2 C 305.8 137.5 349.2 139.7 354.1 203.7 z" style="stroke: none; stroke-width: 1; stroke-dasharray: none; stroke-linecap: butt; stroke-linejoin: miter; stroke-miterlimit: 10; fill: #fc2600; fill-rule: nonzero; opacity: 1;" transform=" matrix(1 0 0 1 0 0) " stroke-linecap="round" />
  <ellipse cx="252.5" cy="388.2" rx="62" ry="56.9" style="stroke: none; stroke-width: 1; stroke-dasharray: none; stroke-linecap: butt; stroke-linejoin: miter; stroke-miterlimit: 10; fill: #ff2206; fill-rule: nonzero; opacity: 1;" transform=" matrix(1 0 0 1 0 0) "/>
  <ellipse cx="275.90000000000003" cy="388.20000000000005" rx="10.6" ry="17.1" style="stroke: none; stroke-width: 1; stroke-dasharray: none; stroke-linecap: butt; stroke-linejoin: miter; stroke-miterlimit: 10; fill: #324A5E; fill-rule: nonzero; opacity: 1;" transform=" matrix(1 0 0 1 0 0) "/>
  <ellipse cx="229.1" cy="388.20000000000005" rx="10.6" ry="17.1" style="stroke: none; stroke-width: 1; stroke-dasharray: none; stroke-linecap: butt; stroke-linejoin: miter; stroke-miterlimit: 10; fill: #324A5E; fill-rule: nonzero; opacity: 1;" transform=" matrix(1 0 0 1 0 0) "/>
  <path d="M 280.6 235.2 c 1.7 13.3 12 23.6 23.1 23.1 c 11.1 -0.6 18.8 -11.8 17.1 -25.1 c -1.7 -13.3 -12 -23.6 -23.1 -23.1 S 278.9 221.9 280.6 235.2 z" style="stroke: none; stroke-width: 1; stroke-dasharray: none; stroke-linecap: butt; stroke-linejoin: miter; stroke-miterlimit: 10; fill: #FFFFFF; fill-rule: nonzero; opacity: 1;" transform=" matrix(1 0 0 1 0 0) " stroke-linecap="round" />
  <path d="M 283.9 238.9 c 1.1 8.6 9 15.3 17.7 14.8 c 8.7 -0.4 14.9 -7.8 13.8 -16.4 c -1.1 -8.6 -9 -15.3 -17.7 -14.8 C 289 222.9 282.8 230.2 283.9 238.9 z" style="stroke: none; stroke-width: 1; stroke-dasharray: none; stroke-linecap: butt; stroke-linejoin: miter; stroke-miterlimit: 10; fill: #F9B54C; fill-rule: nonzero; opacity: 1;" transform=" matrix(1 0 0 1 0 0) " stroke-linecap="round" />
  <path d="M 291.7 238.5 c 0.5 4.4 4.6 7.7 9 7.5 s 7.6 -4 7 -8.3 c -0.5 -4.4 -4.6 -7.7 -9 -7.5 C 294.3 230.4 291.2 234.1 291.7 238.5 z" style="stroke: none; stroke-width: 1; stroke-dasharray: none; stroke-linecap: butt; stroke-linejoin: miter; stroke-miterlimit: 10; fill: #2B3B4E; fill-rule: nonzero; opacity: 1;" transform=" matrix(1 0 0 1 0 0) " stroke-linecap="round" />
  <path d="M 293.5 228.4 c -1.2 2 -0.1 4.1 2.5 4.7 c 2.6 0.6 5.6 -0.5 6.8 -2.5 c 1.2 -2 0.1 -4.1 -2.5 -4.7 S 294.7 226.4 293.5 228.4 z" style="stroke: none; stroke-width: 1; stroke-dasharray: none; stroke-linecap: butt; stroke-linejoin: miter; stroke-miterlimit: 10; fill: #FFFFFF; fill-rule: nonzero; opacity: 1;" transform=" matrix(1 0 0 1 0 0) " stroke-linecap="round" />
  <path d="M 278.9 201.2 c 0 0 3.1 -1.3 7.3 -2.4 c 1 -0.3 2.2 -0.4 3.4 -0.7 c 1.2 -0.1 2.4 -0.4 3.7 -0.4 c 1.2 -0.1 2.5 -0.1 3.8 0 c 1.3 0 2.6 0.3 3.9 0.4 c 1.3 0.4 2.6 0.5 3.9 0.9 c 1.2 0.5 2.6 0.7 3.8 1.2 c 1.2 0.5 2.4 1 3.6 1.4 c 1.1 0.6 2.2 1 3.3 1.5 c 2.1 0.9 3.8 1.9 5.1 2.4 c 1.3 0.6 2.1 0.8 2.1 0.8 s -0.3 -0.8 -1 -2 c -0.4 -0.6 -0.8 -1.4 -1.3 -2.2 c -0.5 -0.9 -1.2 -1.8 -2 -2.7 s -1.7 -1.9 -2.8 -2.9 c -1.1 -0.9 -2.4 -1.8 -3.7 -2.7 c -1.3 -1 -2.9 -1.5 -4.4 -2.3 c -1.5 -0.7 -3.3 -1 -5 -1.5 c -1.8 -0.2 -3.5 -0.4 -5.3 -0.3 c -1.8 0.1 -3.5 0.3 -5.1 0.8 c -1.6 0.3 -3.1 1.1 -4.4 1.7 c -1.3 0.8 -2.5 1.5 -3.5 2.3 c -2 1.6 -3.3 3.3 -4.1 4.5 C 279.2 200.4 278.9 201.2 278.9 201.2 z" style="stroke: none; stroke-width: 1; stroke-dasharray: none; stroke-linecap: butt; stroke-linejoin: miter; stroke-miterlimit: 10; fill: #324A5E; fill-rule: nonzero; opacity: 1;" transform=" matrix(1 0 0 1 0 0) " stroke-linecap="round" />
  <path d="M 224.4 235.2 c -1.7 13.3 -12 23.6 -23.1 23.1 c -11.1 -0.6 -18.8 -11.8 -17.1 -25.1 s 12 -23.6 23.1 -23.1 C 218.4 210.7 226.1 221.9 224.4 235.2 z" style="stroke: none; stroke-width: 1; stroke-dasharray: none; stroke-linecap: butt; stroke-linejoin: miter; stroke-miterlimit: 10; fill: #FFFFFF; fill-rule: nonzero; opacity: 1;" transform=" matrix(1 0 0 1 0 0) " stroke-linecap="round" />
  <path d="M 221.1 238.9 c -1.1 8.6 -9 15.3 -17.7 14.8 c -8.7 -0.4 -14.9 -7.8 -13.8 -16.4 c 1.1 -8.6 9 -15.3 17.7 -14.8 S 222.2 230.2 221.1 238.9 z" style="stroke: none; stroke-width: 1; stroke-dasharray: none; stroke-linecap: butt; stroke-linejoin: miter; stroke-miterlimit: 10; fill: #F9B54C; fill-rule: nonzero; opacity: 1;" transform=" matrix(1 0 0 1 0 0) " stroke-linecap="round" />
  <path d="M 213.3 238.5 c -0.5 4.4 -4.6 7.7 -9 7.5 s -7.6 -4 -7 -8.3 c 0.5 -4.4 4.6 -7.7 9 -7.5 S 213.8 234.1 213.3 238.5 z" style="stroke: none; stroke-width: 1; stroke-dasharray: none; stroke-linecap: butt; stroke-linejoin: miter; stroke-miterlimit: 10; fill: #2B3B4E; fill-rule: nonzero; opacity: 1;" transform=" matrix(1 0 0 1 0 0) " stroke-linecap="round" />
  <path d="M 211.5 228.4 c 1.2 2 0.1 4.1 -2.5 4.7 c -2.6 0.6 -5.6 -0.5 -6.8 -2.5 s -0.1 -4.1 2.5 -4.7 C 207.2 225.3 210.3 226.4 211.5 228.4 z" style="stroke: none; stroke-width: 1; stroke-dasharray: none; stroke-linecap: butt; stroke-linejoin: miter; stroke-miterlimit: 10; fill: #FFFFFF; fill-rule: nonzero; opacity: 1;" transform=" matrix(1 0 0 1 0 0) " stroke-linecap="round" />
  <path d="M 226.1 201.2 c 0 0 -3.1 -1.3 -7.3 -2.4 c -1 -0.3 -2.2 -0.4 -3.4 -0.7 c -1.2 -0.1 -2.4 -0.4 -3.7 -0.4 c -1.2 -0.1 -2.5 -0.1 -3.8 0 c -1.3 0 -2.6 0.3 -3.9 0.4 c -1.3 0.4 -2.6 0.5 -3.9 0.9 c -1.2 0.5 -2.6 0.7 -3.8 1.2 s -2.4 1 -3.6 1.4 c -1.1 0.6 -2.2 1 -3.3 1.5 c -2.1 0.9 -3.8 1.9 -5.1 2.4 c -1.3 0.6 -2.1 0.8 -2.1 0.8 s 0.3 -0.8 1 -2 c 0.4 -0.6 0.8 -1.4 1.3 -2.2 c 0.5 -0.9 1.2 -1.8 2 -2.7 s 1.7 -1.9 2.8 -2.9 c 1.1 -0.9 2.4 -1.8 3.7 -2.7 c 1.3 -1 2.9 -1.5 4.4 -2.3 c 1.5 -0.7 3.3 -1 5 -1.5 c 1.8 -0.2 3.5 -0.4 5.3 -0.3 c 1.8 0.1 3.5 0.3 5.1 0.8 c 1.6 0.3 3 1.1 4.4 1.7 c 1.3 0.8 2.5 1.5 3.5 2.3 c 2 1.6 3.3 3.3 4.1 4.5 C 225.8 200.4 226.1 201.2 226.1 201.2 z" style="stroke: none; stroke-width: 1; stroke-dasharray: none; stroke-linecap: butt; stroke-linejoin: miter; stroke-miterlimit: 10; fill: #324A5E; fill-rule: nonzero; opacity: 1;" transform=" matrix(1 0 0 1 0 0) " stroke-linecap="round" />
</g>
  <g transform="translate(115.56 209.5) scale(0.6 0.6)">
   <text font-family="Bombardier" font-size="40" font-weight="normal" style="stroke: none; stroke-width: 1; stroke-dasharray: none; stroke-linecap: butt; stroke-linejoin: miter; stroke-miterlimit: 10; fill: #fa0000; fill-rule: nonzero; opacity: 1;" ><tspan x="-175.44" y="8.98" style="stroke: none; stroke-width: 0; stroke-dasharray: none; stroke-linecap: butt; stroke-linejoin: miter; stroke-miterlimit: 4; fill: #fa0000; fill-rule: ; opacity: 1;">W</tspan><tspan x="-153.24" y="8.98" style="stroke: none; stroke-width: 0; stroke-dasharray: none; stroke-linecap: butt; stroke-linejoin: miter; stroke-miterlimit: 4; fill: #fa0000; fill-rule: ; opacity: 1;">a</tspan><tspan x="-133.72" y="8.98" style="stroke: none; stroke-width: 0; stroke-dasharray: none; stroke-linecap: butt; stroke-linejoin: miter; stroke-miterlimit: 4; fill: #fa0000; fill-rule: ; opacity: 1;">r</tspan><tspan x="-118.32" y="8.98" style="stroke: none; stroke-width: 0; stroke-dasharray: none; stroke-linecap: butt; stroke-linejoin: miter; stroke-miterlimit: 4; fill: #fa0000; fill-rule: ; opacity: 1;">t</tspan><tspan x="-105.96" y="8.98" style="stroke: none; stroke-width: 0; stroke-dasharray: none; stroke-linecap: butt; stroke-linejoin: miter; stroke-miterlimit: 4; fill: #fa0000; fill-rule: ; opacity: 1;">h</tspan><tspan x="-86.44" y="8.98" style="stroke: none; stroke-width: 0; stroke-dasharray: none; stroke-linecap: butt; stroke-linejoin: miter; stroke-miterlimit: 4; fill: #fa0000; fill-rule: ; opacity: 1;">o</tspan><tspan x="-66.52" y="8.98" style="stroke: none; stroke-width: 0; stroke-dasharray: none; stroke-linecap: butt; stroke-linejoin: miter; stroke-miterlimit: 4; fill: #fa0000; fill-rule: ; opacity: 1;">g</tspan><tspan x="-46.6" y="8.98" style="stroke: none; stroke-width: 0; stroke-dasharray: none; stroke-linecap: butt; stroke-linejoin: miter; stroke-miterlimit: 4; fill: #fa0000; fill-rule: ; opacity: 1;"> </tspan><tspan x="-36.6" y="8.98" style="stroke: none; stroke-width: 0; stroke-dasharray: none; stroke-linecap: butt; stroke-linejoin: miter; stroke-miterlimit: 4; fill: #fa0000; fill-rule: ; opacity: 1;">e</tspan><tspan x="-16.88" y="8.98" style="stroke: none; stroke-width: 0; stroke-dasharray: none; stroke-linecap: butt; stroke-linejoin: miter; stroke-miterlimit: 4; fill: #fa0000; fill-rule: ; opacity: 1;">x</tspan><tspan x="1.4" y="8.98" style="stroke: none; stroke-width: 0; stroke-dasharray: none; stroke-linecap: butt; stroke-linejoin: miter; stroke-miterlimit: 4; fill: #fa0000; fill-rule: ; opacity: 1;">p</tspan><tspan x="20.92" y="8.98" style="stroke: none; stroke-width: 0; stroke-dasharray: none; stroke-linecap: butt; stroke-linejoin: miter; stroke-miterlimit: 4; fill: #fa0000; fill-rule: ; opacity: 1;">r</tspan><tspan x="36.32" y="8.98" style="stroke: none; stroke-width: 0; stroke-dasharray: none; stroke-linecap: butt; stroke-linejoin: miter; stroke-miterlimit: 4; fill: #fa0000; fill-rule: ; opacity: 1;">e</tspan><tspan x="56.04" y="8.98" style="stroke: none; stroke-width: 0; stroke-dasharray: none; stroke-linecap: butt; stroke-linejoin: miter; stroke-miterlimit: 4; fill: #fa0000; fill-rule: ; opacity: 1;">s</tspan><tspan x="74.76" y="8.98" style="stroke: none; stroke-width: 0; stroke-dasharray: none; stroke-linecap: butt; stroke-linejoin: miter; stroke-miterlimit: 4; fill: #fa0000; fill-rule: ; opacity: 1;">s</tspan><tspan x="93.48" y="8.98" style="stroke: none; stroke-width: 0; stroke-dasharray: none; stroke-linecap: butt; stroke-linejoin: miter; stroke-miterlimit: 4; fill: #fa0000; fill-rule: ; opacity: 1;"> </tspan><tspan x="103.48" y="8.98" style="stroke: none; stroke-width: 0; stroke-dasharray: none; stroke-linecap: butt; stroke-linejoin: miter; stroke-miterlimit: 4; fill: #fa0000; fill-rule: ; opacity: 1;">l</tspan><tspan x="112.16" y="8.98" style="stroke: none; stroke-width: 0; stroke-dasharray: none; stroke-linecap: butt; stroke-linejoin: miter; stroke-miterlimit: 4; fill: #fa0000; fill-rule: ; opacity: 1;">i</tspan><tspan x="120.8" y="8.98" style="stroke: none; stroke-width: 0; stroke-dasharray: none; stroke-linecap: butt; stroke-linejoin: miter; stroke-miterlimit: 4; fill: #fa0000; fill-rule: ; opacity: 1;">n</tspan><tspan x="140.32" y="8.98" style="stroke: none; stroke-width: 0; stroke-dasharray: none; stroke-linecap: butt; stroke-linejoin: miter; stroke-miterlimit: 4; fill: #fa0000; fill-rule: ; opacity: 1;">e</tspan><tspan x="160.04" y="8.98" style="stroke: none; stroke-width: 0; stroke-dasharray: none; stroke-linecap: butt; stroke-linejoin: miter; stroke-miterlimit: 4; fill: #fa0000; fill-rule: ; opacity: 1;">r</tspan></text>
 </g>
</svg>